<svg width="2711" height="857" viewBox="0 0 2711 857" fill="none" xmlns="http://www.w3.org/2000/svg">
<path d="M742.5 453L645.474 233.133C640.9 222.77 626.183 222.806 621.661 233.192L525.959 453M742.5 453L828.798 645.686C832.65 654.287 826.357 664 816.933 664H756.778C751.728 664 747.135 661.075 744.998 656.499L658.636 471.499C654.612 462.88 660.904 453 670.415 453H742.5ZM525.959 453L440.989 646.779C437.223 655.37 443.516 665 452.895 665H515.542C520.684 665 525.343 661.969 527.427 657.267L609.863 471.267C613.673 462.672 607.38 453 597.978 453H525.959Z" stroke="#43EAD3" stroke-width="27"/>
<path d="M613 282L653 282" stroke="#43EAD3" stroke-width="27" stroke-linecap="square"/>
<path d="M561 411L608 411" stroke="#43EAD3" stroke-width="27" stroke-linecap="square"/>
<path d="M599 327L669 327" stroke="#43EAD3" stroke-width="27" stroke-linecap="square"/>
<path d="M613 370L684 370" stroke="#43EAD3" stroke-width="27" stroke-linecap="square"/>
<path d="M649 411L715 411" stroke="#43EAD3" stroke-width="27" stroke-linecap="square"/>
<path d="M689 496L749 496" stroke="#43EAD3" stroke-width="27" stroke-linecap="square"/>
<path d="M749 621H809" stroke="#43EAD3" stroke-width="27" stroke-linecap="square"/>
<path d="M723 580L782 580" stroke="#43EAD3" stroke-width="27" stroke-linecap="square"/>
<path d="M702 539L759 539" stroke="#43EAD3" stroke-width="27" stroke-linecap="square"/>
<path d="M524 496L584 496" stroke="#43EAD3" stroke-width="27" stroke-linecap="square"/>
<path d="M464 621H524" stroke="#43EAD3" stroke-width="27" stroke-linecap="square"/>
<path d="M486 580L545 580" stroke="#43EAD3" stroke-width="27" stroke-linecap="square"/>
<path d="M504 539L561 539" stroke="#43EAD3" stroke-width="27" stroke-linecap="square"/>
<path d="M454 188H27C19.8203 188 14 193.82 14 201V306C14 313.18 19.8203 319 27 319H140C147.18 319 153 324.82 153 332V655.5C153 662.68 158.82 668.5 166 668.5H314.5C321.68 668.5 327.5 662.68 327.5 655.5V331C327.5 323.82 333.32 318 340.5 318H454C461.18 318 467 312.18 467 305V201C467 193.82 461.18 188 454 188Z" stroke="#43EAD3" stroke-width="27"/>
<path d="M57 232H157" stroke="#43EAD3" stroke-width="27" stroke-linecap="square"/>
<path d="M198 322H282" stroke="#43EAD3" stroke-width="27" stroke-linecap="square"/>
<path d="M198 365H282" stroke="#43EAD3" stroke-width="27" stroke-linecap="square"/>
<path d="M198 408H282" stroke="#43EAD3" stroke-width="27" stroke-linecap="square"/>
<path d="M198 453H282" stroke="#43EAD3" stroke-width="27" stroke-linecap="square"/>
<path d="M198 496H282" stroke="#43EAD3" stroke-width="27" stroke-linecap="square"/>
<path d="M198 539H282" stroke="#43EAD3" stroke-width="27" stroke-linecap="square"/>
<path d="M198 582H282" stroke="#43EAD3" stroke-width="27" stroke-linecap="square"/>
<path d="M198 625H282" stroke="#43EAD3" stroke-width="27" stroke-linecap="square"/>
<path d="M243 232H423" stroke="#43EAD3" stroke-width="27" stroke-linecap="square"/>
<path d="M57 275H202" stroke="#43EAD3" stroke-width="27" stroke-linecap="square"/>
<path d="M243 275H423" stroke="#43EAD3" stroke-width="27" stroke-linecap="square"/>
<path d="M194 232H202" stroke="#43EAD3" stroke-width="27" stroke-linecap="square"/>
<path d="M1143.88 226.862L876.086 646.018C870.494 654.77 876.917 666.222 887.301 666.014L981.082 664.138C985.407 664.052 989.405 661.82 991.749 658.184L1261.9 239.019C1267.54 230.271 1261.12 218.775 1250.72 218.979L1154.58 220.864C1150.23 220.949 1146.22 223.2 1143.88 226.862Z" stroke="#DADFDD" stroke-width="23"/>
<path d="M1069.5 539.5L1145.67 658.988C1148.05 662.733 1152.19 665 1156.63 665H1252.48C1262.7 665 1268.93 653.741 1263.49 645.084L1134 439M1005 442L874.392 239.035C868.825 230.383 875.037 219 885.324 219H983.415C987.832 219 991.946 221.243 994.34 224.954L1069.5 341.5" stroke="#DADFDD" stroke-width="23"/>
<g filter="url(#filter0_d_1_88)">
<path d="M1765.53 482.431C1761.12 487.374 1761.56 494.952 1766.51 499.355C1771.46 503.759 1779.05 503.321 1783.47 498.377L1765.53 482.431ZM1783.47 498.377L1881.47 388.607L1863.53 372.661L1765.53 482.431L1783.47 498.377Z" fill="#DBE5E4"/>
<line y1="-12" x2="76.6201" y2="-12" transform="matrix(0.861393 0.50794 -0.509519 0.860459 1851.5 393.607)" stroke="#DBE5E4" stroke-width="24"/>
<line y1="-12" x2="126.377" y2="-12" transform="matrix(0.522245 -0.852795 0.853767 0.520655 1919.5 428.533)" stroke="#DBE5E4" stroke-width="24"/>
<line y1="-12" x2="69.0766" y2="-12" transform="matrix(0.854124 0.52007 -0.52166 0.853154 1965.5 336.726)" stroke="#DBE5E4" stroke-width="24"/>
<line y1="-12" x2="114.951" y2="-12" transform="matrix(0.539361 -0.842074 0.843098 0.53776 2024.5 372.651)" stroke="#DBE5E4" stroke-width="24"/>
</g>
<path d="M2195 444.5C2195 565.93 2096.13 664.5 1974 664.5C1851.87 664.5 1753 565.93 1753 444.5C1753 323.07 1851.87 224.5 1974 224.5C2096.13 224.5 2195 323.07 2195 444.5Z" stroke="#D9DCE1" stroke-width="37"/>
<path d="M1349.25 683C1333.78 683 1326.05 674.711 1326.05 658.134V232.433C1326.05 215.856 1333.78 207.567 1349.25 207.567H1399.65C1415.12 207.567 1422.86 215.856 1422.86 232.433V394.558H1601.23V232.433C1601.23 215.856 1608.96 207.567 1624.44 207.567H1674.83C1690.3 207.567 1698.04 215.856 1698.04 232.433V658.134C1698.04 674.711 1690.3 683 1674.83 683H1624.44C1608.96 683 1601.23 674.711 1601.23 658.134V476.78H1422.86V658.134C1422.86 674.711 1415.12 683 1399.65 683H1349.25Z" fill="#D9DDE0"/>
<path d="M2705.88 648.435C2706.34 650.256 2706.57 652.078 2706.57 653.899C2707.02 655.265 2707.02 656.631 2706.57 657.997C2706.57 658.908 2706.34 660.046 2705.88 661.412C2705.88 662.323 2705.66 663.461 2705.2 664.827C2704.75 665.738 2704.52 666.648 2704.52 667.559C2704.06 667.559 2703.84 668.014 2703.84 668.925C2703.38 669.836 2703.15 670.746 2703.15 671.657C2703.15 672.568 2702.92 673.251 2702.47 673.706C2700.65 675.527 2698.83 677.121 2697.01 678.487C2697.01 678.487 2696.55 678.942 2695.64 679.853C2695.64 679.853 2695.18 680.308 2694.27 681.219C2693.36 681.674 2692.45 682.357 2691.54 683.268C2690.63 683.723 2689.72 684.179 2688.81 684.634C2688.35 685.089 2687.44 685.545 2686.08 686C2685.17 686 2684.26 686.228 2683.35 686.683C2682.43 686.683 2681.75 686.911 2681.3 687.366C2675.83 688.732 2670.37 689.415 2664.9 689.415C2659.9 689.87 2654.2 690.098 2647.83 690.098C2639.18 690.098 2630.53 690.098 2621.88 690.098C2613.68 690.098 2605.26 689.87 2596.6 689.415C2591.14 689.415 2584.99 688.96 2578.16 688.049C2571.79 687.594 2566.1 686 2561.09 683.268C2555.17 680.081 2550.39 676.21 2546.75 671.657C2543.56 667.104 2540.83 662.55 2538.55 657.997L2531.72 647.069C2526.26 639.328 2519.65 634.092 2511.91 631.36C2507.81 629.994 2503.72 629.311 2499.62 629.311C2495.52 628.856 2490.97 628.4 2485.96 627.945C2482.32 627.945 2478.45 627.945 2474.35 627.945C2470.7 627.49 2466.83 626.807 2462.74 625.896C2461.83 625.896 2461.14 625.668 2460.69 625.213C2456.13 624.302 2453.4 623.619 2452.49 623.164C2450.67 621.343 2449.08 619.066 2447.71 616.334C2446.8 615.423 2446.34 614.74 2446.34 614.285C2446.34 613.83 2446.12 613.602 2445.66 613.602C2443.84 610.87 2442.93 608.821 2442.93 607.455C2440.65 610.187 2438.15 612.919 2435.42 615.651C2433.14 617.928 2430.41 619.977 2427.22 621.798C2424.03 623.619 2420.62 625.213 2416.98 626.579C2413.79 627.49 2410.37 628.4 2406.73 629.311C2402.63 630.222 2398.76 631.36 2395.12 632.726C2391.48 634.092 2388.06 635.913 2384.87 638.19C2381.69 640.011 2378.95 642.516 2376.68 645.703C2374.86 648.89 2372.81 652.305 2370.53 655.948C2368.71 659.135 2366.89 662.323 2365.07 665.51C2363.25 668.242 2360.97 670.974 2358.24 673.706C2350.95 680.991 2342.3 685.317 2332.28 686.683C2322.27 688.504 2312.7 689.643 2303.6 690.098C2296.31 690.098 2288.34 690.098 2279.69 690.098C2271.04 690.098 2262.84 688.504 2255.1 685.317C2253.28 684.406 2251.69 683.496 2250.32 682.585C2248.96 681.674 2247.82 680.991 2246.91 680.536L2242.81 678.487C2240.53 676.666 2237.57 675.072 2233.93 673.706L2230.52 671.657C2229.61 671.202 2228.47 670.974 2227.1 670.974C2226.19 670.519 2225.28 670.063 2224.37 669.608C2221.18 668.697 2217.77 667.331 2214.12 665.51C2212.3 663.689 2210.94 661.867 2210.03 660.046C2209.12 659.135 2208.66 658.452 2208.66 657.997C2208.2 657.997 2207.75 657.769 2207.29 657.314C2206.84 656.403 2206.16 655.493 2205.25 654.582C2204.79 653.671 2204.33 652.988 2203.88 652.533C2203.42 651.167 2203.42 648.89 2203.88 645.703C2203.88 642.971 2203.88 640.467 2203.88 638.19C2204.33 635.458 2204.79 632.726 2205.25 629.994C2207.07 622.253 2209.34 614.74 2212.08 607.455C2214.81 599.714 2217.31 592.201 2219.59 584.916C2222.32 579.907 2225.05 573.305 2227.78 565.109C2230.52 556.458 2233.25 547.579 2235.98 538.472C2238.71 529.365 2241.44 520.714 2244.18 512.518C2246.91 503.867 2249.64 497.037 2252.37 492.028C2254.19 487.93 2256.01 483.377 2257.84 478.368C2259.66 473.359 2261.48 468.123 2263.3 462.659C2266.03 454.008 2268.99 445.584 2272.18 437.388C2275.37 428.737 2278.55 421.224 2281.74 414.849C2285.38 407.564 2289.25 400.051 2293.35 392.31C2297.91 384.114 2303.6 377.284 2310.43 371.82C2310.43 371.365 2310.88 370.682 2311.79 369.771L2317.94 364.99C2320.67 364.079 2322.95 363.624 2324.77 363.624C2325.68 363.169 2326.59 362.941 2327.5 362.941C2327.96 362.941 2328.41 362.713 2328.87 362.258C2329.78 361.803 2330.69 361.575 2331.6 361.575C2332.51 361.575 2333.19 361.575 2333.65 361.575C2335.02 361.575 2337.06 362.03 2339.8 362.941C2340.71 363.396 2341.39 363.624 2341.85 363.624C2346.4 364.99 2350.5 366.811 2354.14 369.088C2358.24 371.365 2362.11 373.641 2365.75 375.918C2366.66 376.373 2367.57 376.829 2368.48 377.284C2369.39 377.739 2370.08 378.422 2370.53 379.333C2373.26 381.154 2376 383.203 2378.73 385.48C2381.91 387.301 2384.87 389.35 2387.61 391.627C2398.53 401.189 2407.41 415.304 2414.24 433.973C2415.15 437.616 2416.06 441.031 2416.98 444.218C2417.89 446.95 2418.57 449.682 2419.02 452.414C2419.02 453.325 2419.25 454.008 2419.71 454.463C2420.16 456.284 2420.39 458.561 2420.39 461.293C2419.93 463.57 2419.02 466.757 2417.66 470.855C2416.29 474.498 2414.02 478.823 2410.83 483.832C2409.01 486.109 2408.1 487.93 2408.1 489.296C2407.64 489.751 2407.87 491.8 2408.78 495.443V499.541C2408.78 499.996 2408.78 500.452 2408.78 500.907C2408.78 500.907 2408.78 501.362 2408.78 502.273C2409.23 502.273 2409.46 502.501 2409.46 502.956L2413.56 494.76H2440.88L2453.17 490.662L2468.2 494.76L2460.69 509.103H2465.47C2465.92 509.103 2466.38 509.103 2466.83 509.103C2471.39 509.103 2474.12 509.331 2475.03 509.786C2476.4 510.241 2479.36 513.884 2483.91 520.714C2484.82 521.169 2485.28 522.308 2485.28 524.129C2485.73 525.95 2486.19 527.772 2486.64 529.593C2488.92 524.584 2490.28 520.031 2490.74 515.933C2491.19 514.567 2491.42 511.835 2491.42 507.737V503.639C2491.42 499.996 2490.74 496.354 2489.37 492.711C2488.46 489.068 2487.32 485.426 2485.96 481.783C2485.05 479.962 2484.59 478.368 2484.59 477.002C2481.86 469.261 2479.13 461.748 2476.4 454.463C2474.12 446.722 2472.07 438.982 2470.25 431.241C2469.79 429.42 2469.57 427.598 2469.57 425.777C2470.02 423.5 2470.48 421.679 2470.93 420.313C2470.93 419.402 2470.93 418.719 2470.93 418.264C2471.39 417.809 2471.62 417.353 2471.62 416.898C2471.62 413.711 2472.3 411.889 2473.66 411.434C2475.03 410.068 2477.08 409.613 2479.81 410.068C2479.81 410.068 2480.04 410.068 2480.49 410.068C2481.4 410.068 2482.77 409.84 2484.59 409.385C2482.77 406.653 2481.63 404.832 2481.18 403.921C2481.18 403.01 2481.18 401.872 2481.18 400.506C2481.18 399.14 2481.4 397.774 2481.86 396.408C2482.32 395.953 2482.54 394.814 2482.54 392.993C2483 391.172 2483.23 389.806 2483.23 388.895C2483.23 387.529 2483.45 386.618 2483.91 386.163C2481.18 386.618 2478.45 387.074 2475.71 387.529C2472.98 387.529 2469.79 387.301 2466.15 386.846C2465.7 386.391 2465.24 386.163 2464.79 386.163C2464.33 386.163 2463.65 385.935 2462.74 385.48C2457.73 384.114 2454.54 382.748 2453.17 381.382C2451.81 380.471 2449.53 377.739 2446.34 373.186C2444.52 370.909 2442.93 368.405 2441.56 365.673C2440.2 362.941 2438.6 360.437 2436.78 358.16C2433.59 351.785 2430.64 347.004 2427.9 343.817C2423.81 338.353 2418.8 332.661 2412.88 326.742C2411.97 325.831 2411.06 324.921 2410.15 324.01C2409.23 323.099 2408.55 322.189 2408.1 321.278C2407.19 319.912 2406.27 317.18 2405.36 313.082C2404.91 312.171 2404.68 311.033 2404.68 309.667C2404.23 309.667 2404 309.439 2404 308.984C2403.54 308.073 2403.32 306.707 2403.32 304.886C2403.32 303.065 2404 300.788 2405.36 298.056C2405.36 297.601 2405.36 297.373 2405.36 297.373C2405.82 296.918 2406.05 296.462 2406.05 296.007C2406.05 295.552 2406.27 295.096 2406.73 294.641C2407.19 293.73 2407.64 292.82 2408.1 291.909C2408.55 290.543 2409.01 289.632 2409.46 289.177C2410.83 287.811 2413.1 286.9 2416.29 286.445C2416.75 285.99 2417.2 285.762 2417.66 285.762C2420.39 284.396 2422.89 283.713 2425.17 283.713C2424.72 283.258 2424.49 283.03 2424.49 283.03C2424.49 283.03 2424.26 282.802 2423.81 282.347C2421.07 278.704 2418.34 274.834 2415.61 270.736C2413.33 266.638 2411.74 262.085 2410.83 257.076C2410.83 256.165 2410.83 255.027 2410.83 253.661C2411.28 252.295 2411.74 250.701 2412.19 248.88H2399.9L2387.61 223.609L2373.95 222.926H2358.24L2362.34 231.805H2347.31L2354.82 216.779L2356.87 220.877L2363.7 207.9L2368.48 216.779L2372.58 207.9L2376.68 216.096L2381.46 207.217L2386.24 216.096L2390.34 207.217L2397.85 221.56H2413.56L2417.66 229.756C2418.57 227.935 2419.48 226.341 2420.39 224.975C2421.76 223.154 2423.12 221.332 2424.49 219.511C2425.4 218.6 2425.85 218.145 2425.85 218.145C2428.13 215.413 2429.72 213.819 2430.64 213.364C2432 211.998 2433.82 211.087 2436.1 210.632C2436.55 210.177 2437.24 209.949 2438.15 209.949C2444.98 206.762 2452.04 204.94 2459.32 204.485C2467.06 204.03 2474.35 203.802 2481.18 203.802C2491.65 203.802 2503.03 204.485 2515.33 205.851C2528.08 206.762 2539 211.315 2548.11 219.511C2556.31 226.796 2562.45 235.903 2566.55 246.831C2571.11 257.304 2574.98 267.321 2578.16 276.883C2581.35 282.347 2584.31 289.86 2587.04 299.422C2590.23 308.984 2593.42 319.001 2596.6 329.474C2599.79 339.491 2602.75 349.281 2605.48 358.843C2608.22 367.95 2611.17 375.007 2614.36 380.016L2620.51 397.091C2623.24 404.376 2625.75 411.662 2628.02 418.947C2630.75 425.777 2633.03 433.062 2634.85 440.803C2635.76 444.446 2636.45 448.088 2636.9 451.731C2637.81 454.918 2638.27 458.789 2638.27 463.342C2638.27 464.253 2638.27 465.163 2638.27 466.074C2638.27 466.985 2638.27 467.668 2638.27 468.123C2637.81 468.578 2637.36 469.261 2636.9 470.172C2636.9 471.083 2636.45 471.993 2635.54 472.904C2635.54 473.359 2635.31 473.815 2634.85 474.27C2634.85 474.725 2634.62 474.953 2634.17 474.953C2634.17 474.953 2634.17 475.408 2634.17 476.319C2633.26 478.14 2632.35 479.734 2631.44 481.1C2630.53 482.466 2629.62 483.377 2628.71 483.832C2627.34 484.743 2624.61 484.743 2620.51 483.832C2618.69 483.377 2616.87 483.149 2615.05 483.149C2613.22 482.694 2611.4 482.238 2609.58 481.783V485.881C2609.13 486.336 2608.9 486.792 2608.9 487.247C2609.35 487.247 2609.58 487.019 2609.58 486.564C2609.58 487.019 2609.35 487.702 2608.9 488.613C2608.9 489.068 2608.9 489.751 2608.9 490.662V500.224C2608.44 507.054 2608.67 512.973 2609.58 517.982C2610.95 522.535 2612.54 526.633 2614.36 530.276L2632.12 494.76L2651.93 499.541L2645.78 522.08L2660.81 525.495L2658.76 549.4C2661.03 550.311 2663.31 551.677 2665.59 553.498C2668.32 555.319 2670.6 557.368 2672.42 559.645C2673.33 560.1 2674.01 560.783 2674.47 561.694C2674.92 562.605 2675.38 563.515 2675.83 564.426C2676.29 564.881 2676.52 565.564 2676.52 566.475C2679.25 570.573 2681.52 574.671 2683.35 578.769C2685.17 582.867 2686.76 587.193 2688.13 591.746C2690.4 596.755 2692.22 601.991 2693.59 607.455C2695.41 612.464 2697.23 617.472 2699.05 622.481C2699.51 622.936 2699.74 623.619 2699.74 624.53C2699.74 624.985 2699.96 625.668 2700.42 626.579C2701.33 629.311 2702.24 632.271 2703.15 635.458C2704.06 638.19 2704.75 641.15 2705.2 644.337C2705.2 644.792 2705.2 645.475 2705.2 646.386C2705.66 646.841 2705.88 647.524 2705.88 648.435ZM2419.02 256.393C2419.48 260.036 2420.85 263.678 2423.12 267.321C2425.4 270.508 2427.68 273.696 2429.95 276.883C2431.32 278.704 2432.68 280.298 2434.05 281.664C2435.87 282.575 2437.69 283.713 2439.51 285.079C2439.97 285.079 2440.42 285.534 2440.88 286.445C2441.79 287.356 2442.25 287.811 2442.25 287.811C2442.7 287.811 2442.93 287.811 2442.93 287.811C2443.38 287.356 2443.84 287.128 2444.3 287.128C2444.75 286.673 2446.34 286.217 2449.08 285.762C2450.9 285.762 2452.04 285.762 2452.49 285.762C2452.95 285.307 2453.17 285.079 2453.17 285.079C2453.17 285.079 2453.63 284.168 2454.54 282.347C2454.54 281.892 2454.54 281.436 2454.54 280.981C2455 280.526 2455.22 280.298 2455.22 280.298C2456.59 278.021 2457.96 275.972 2459.32 274.151C2460.69 272.33 2462.05 270.508 2463.42 268.687C2463.42 268.687 2463.87 268.232 2464.79 267.321C2466.61 264.589 2468.66 262.768 2470.93 261.857C2471.84 261.402 2474.35 261.629 2478.45 262.54C2478.9 262.54 2479.13 262.768 2479.13 263.223C2479.58 263.223 2480.04 263.223 2480.49 263.223C2482.77 263.678 2485.05 264.134 2487.32 264.589C2490.06 264.589 2492.56 264.589 2494.84 264.589C2496.2 264.589 2498.02 264.817 2500.3 265.272C2501.21 265.272 2502.58 264.589 2504.4 263.223C2505.31 262.768 2506.22 262.085 2507.13 261.174C2508.95 260.263 2511.23 259.353 2513.96 258.442L2509.18 248.88H2536.5L2550.16 276.2H2539.91C2539.46 276.655 2539.23 277.111 2539.23 277.566C2538.78 280.753 2538.32 283.941 2537.87 287.128C2537.41 289.86 2536.96 292.82 2536.5 296.007C2536.04 299.194 2535.59 302.382 2535.13 305.569C2534.68 308.756 2534.22 312.399 2533.77 316.497C2533.77 318.318 2533.54 320.367 2533.09 322.644C2533.09 324.465 2533.09 326.287 2533.09 328.108C2532.63 334.027 2531.95 339.036 2531.04 343.134C2530.13 346.777 2528.53 350.192 2526.26 353.379C2523.52 357.932 2519.2 362.941 2513.28 368.405L2507.81 372.503C2504.17 375.69 2499.85 380.016 2494.84 385.48C2493.93 386.391 2493.24 387.301 2492.79 388.212C2492.33 388.667 2491.88 389.123 2491.42 389.578C2491.42 390.033 2491.42 390.716 2491.42 391.627C2491.42 392.082 2491.19 393.448 2490.74 395.725C2490.74 396.18 2490.51 396.636 2490.06 397.091C2490.06 397.546 2490.06 398.002 2490.06 398.457L2489.37 401.872C2489.37 401.872 2489.6 402.327 2490.06 403.238C2490.97 403.693 2492.33 405.287 2494.15 408.019C2494.61 408.474 2495.06 409.157 2495.52 410.068C2495.98 410.523 2496.43 411.206 2496.89 412.117C2499.16 414.394 2501.21 416.898 2503.03 419.63C2504.85 422.362 2506.45 425.322 2507.81 428.509L2516.01 444.901C2516.47 445.812 2516.69 446.722 2516.69 447.633C2517.15 448.544 2517.6 449.454 2518.06 450.365C2519.88 453.097 2521.47 456.057 2522.84 459.244C2524.66 461.976 2526.48 464.936 2528.3 468.123C2530.13 470.855 2531.95 473.815 2533.77 477.002C2536.04 479.734 2538.32 482.011 2540.6 483.832C2547.88 487.93 2556.08 488.841 2565.19 486.564C2567.01 485.653 2568.83 484.97 2570.65 484.515C2572.47 483.604 2574.29 482.694 2576.11 481.783C2577.02 480.872 2579.3 479.506 2582.94 477.685C2583.85 476.774 2584.77 476.091 2585.68 475.636C2587.04 475.181 2588.18 474.725 2589.09 474.27C2590 474.27 2590.91 473.815 2591.82 472.904C2592.28 472.904 2592.73 472.676 2593.19 472.221C2595.92 470.4 2597.74 469.489 2598.65 469.489C2600.93 469.489 2603.43 470.172 2606.17 471.538C2606.62 471.993 2606.85 472.221 2606.85 472.221C2607.3 472.221 2607.53 472.221 2607.53 472.221C2611.17 474.042 2616.41 475.181 2623.24 475.636C2624.15 475.636 2625.29 474.725 2626.66 472.904C2627.57 471.083 2628.02 470.172 2628.02 470.172C2628.02 469.717 2628.71 468.578 2630.07 466.757C2630.07 466.302 2630.07 465.846 2630.07 465.391C2630.07 464.936 2630.07 463.797 2630.07 461.976C2630.07 456.057 2629.16 449.682 2627.34 442.852C2625.52 435.567 2623.24 428.509 2620.51 421.679C2617.78 414.394 2615.27 407.336 2613 400.506L2606.85 383.431C2603.66 377.967 2600.47 370.454 2597.29 360.892C2594.56 351.33 2591.6 341.54 2588.41 331.523C2585.68 320.14 2582.49 309.667 2578.85 300.105C2575.2 292.82 2571.79 284.624 2568.6 275.517C2565.87 265.955 2562.45 256.848 2558.36 248.197C2554.71 239.09 2549.48 231.577 2542.65 225.658C2534.45 218.373 2524.66 214.275 2513.28 213.364C2502.35 212.453 2491.65 211.998 2481.18 211.998C2473.89 211.998 2466.83 212.226 2460 212.681C2453.63 213.136 2447.48 214.73 2441.56 217.462C2441.11 217.462 2440.65 217.69 2440.2 218.145C2439.74 218.145 2439.29 218.145 2438.83 218.145C2437.92 218.6 2437.24 219.056 2436.78 219.511C2436.33 219.511 2435.87 219.511 2435.42 219.511C2434.51 220.422 2433.59 221.56 2432.68 222.926C2431.77 223.837 2431.32 224.52 2431.32 224.975C2427.68 229.073 2424.72 233.854 2422.44 239.318L2427.22 248.88H2420.39C2420.39 249.791 2420.16 250.474 2419.71 250.929C2419.71 252.295 2419.48 253.433 2419.02 254.344C2419.02 254.799 2419.02 255.482 2419.02 256.393ZM2413.56 276.2H2386.24L2372.58 248.88H2399.9L2413.56 276.2ZM2471.62 272.102C2471.16 272.557 2470.7 273.013 2470.25 273.468C2470.25 273.468 2470.02 273.696 2469.57 274.151C2468.66 275.517 2467.52 277.111 2466.15 278.932C2465.24 280.298 2464.1 282.119 2462.74 284.396C2462.28 284.396 2462.05 285.079 2462.05 286.445C2463.87 285.534 2465.24 285.079 2466.15 285.079C2469.79 284.168 2473.44 283.713 2477.08 283.713C2480.72 283.713 2484.14 283.713 2487.32 283.713C2489.15 283.713 2490.74 283.941 2492.11 284.396C2493.47 284.396 2495.06 284.396 2496.89 284.396C2497.8 284.396 2499.62 283.941 2502.35 283.03C2504.17 283.03 2505.99 282.802 2507.81 282.347C2509.64 281.892 2511.46 281.892 2513.28 282.347C2514.19 282.802 2515.1 283.258 2516.01 283.713C2516.92 283.713 2517.6 284.168 2518.06 285.079C2518.51 285.079 2518.74 285.307 2518.74 285.762C2519.2 285.762 2519.43 285.762 2519.43 285.762C2519.88 285.762 2520.11 285.99 2520.11 286.445C2520.56 286.445 2521.02 286.445 2521.47 286.445C2525.12 287.811 2527.39 289.405 2528.3 291.226C2528.3 291.226 2528.3 291.454 2528.3 291.909C2528.3 291.909 2528.53 291.909 2528.99 291.909L2531.04 276.2H2522.84L2517.38 265.955C2514.64 266.866 2512.6 267.776 2511.23 268.687C2511.23 268.687 2510.32 269.142 2508.5 270.053C2507.13 270.508 2505.77 271.191 2504.4 272.102C2503.49 272.557 2502.58 273.013 2501.67 273.468H2496.2C2495.75 273.013 2495.29 272.785 2494.84 272.785C2492.11 272.785 2489.37 272.785 2486.64 272.785C2484.36 272.33 2481.63 271.874 2478.45 271.419C2477.99 270.964 2477.31 270.736 2476.4 270.736C2474.57 270.281 2472.98 270.736 2471.62 272.102ZM2470.25 379.333C2480.27 379.788 2490.97 375.463 2502.35 366.356C2507.36 362.258 2511.91 357.705 2516.01 352.696C2519.65 347.687 2521.93 341.996 2522.84 335.621C2524.21 329.246 2525.12 322.644 2525.57 315.814C2525.57 311.716 2524.66 306.252 2522.84 299.422C2522.38 298.056 2522.16 297.145 2522.16 296.69C2522.16 296.235 2522.16 296.007 2522.16 296.007C2522.16 296.007 2521.93 295.779 2521.47 295.324C2521.02 294.869 2519.88 294.413 2518.06 293.958C2517.15 293.958 2516.24 293.503 2515.33 292.592C2515.33 292.592 2514.19 291.909 2511.91 290.543C2511 290.543 2509.86 290.543 2508.5 290.543C2507.13 290.543 2505.54 290.771 2503.72 291.226C2500.98 292.137 2498.71 292.592 2496.89 292.592C2495.06 292.592 2493.24 292.592 2491.42 292.592C2490.06 292.137 2488.46 291.909 2486.64 291.909C2483.45 291.909 2480.27 291.909 2477.08 291.909C2474.35 291.454 2471.39 291.681 2468.2 292.592C2466.38 293.047 2464.56 293.958 2462.74 295.324C2461.37 295.779 2460 296.235 2458.64 296.69C2457.27 297.145 2455.91 297.601 2454.54 298.056C2451.81 298.511 2448.85 298.739 2445.66 298.739C2442.47 298.739 2439.74 298.511 2437.47 298.056C2435.64 298.056 2433.14 296.918 2429.95 294.641C2426.76 292.82 2424.94 291.909 2424.49 291.909C2424.49 291.909 2424.26 291.909 2423.81 291.909C2423.35 291.909 2422.44 292.364 2421.07 293.275C2420.62 293.275 2420.16 293.503 2419.71 293.958C2419.25 293.958 2418.34 294.186 2416.98 294.641C2416.52 294.641 2416.06 294.869 2415.61 295.324C2415.61 295.324 2415.38 295.324 2414.93 295.324C2414.93 295.324 2414.7 295.552 2414.24 296.007C2414.24 296.007 2414.24 296.462 2414.24 297.373C2414.24 298.284 2414.02 298.739 2413.56 298.739C2413.56 299.194 2413.33 299.65 2412.88 300.105C2412.88 300.56 2412.88 301.016 2412.88 301.471C2411.97 302.837 2411.51 304.203 2411.51 305.569C2411.97 306.48 2412.19 307.163 2412.19 307.618C2412.65 308.073 2412.88 309.212 2412.88 311.033C2413.79 313.765 2414.47 315.814 2414.93 317.18L2418.34 320.595C2418.8 321.05 2419.25 321.506 2419.71 321.961C2420.16 321.961 2420.62 322.416 2421.07 323.327C2423.35 325.604 2425.63 328.108 2427.9 330.84C2430.64 333.117 2432.91 335.621 2434.73 338.353C2436.55 341.085 2438.15 343.817 2439.51 346.549C2441.34 348.826 2442.93 351.33 2444.3 354.062C2445.66 356.339 2447.03 358.843 2448.39 361.575C2449.76 363.852 2451.35 366.128 2453.17 368.405C2454.08 369.316 2454.77 370.226 2455.22 371.137L2457.96 375.235C2459.32 376.146 2461.6 376.829 2464.79 377.284C2465.7 377.739 2467.52 378.422 2470.25 379.333ZM2423.12 614.285C2426.76 612.008 2429.95 609.276 2432.68 606.089C2435.87 602.446 2439.06 598.804 2442.25 595.161C2444.07 592.429 2445.66 590.38 2447.03 589.014L2455.91 578.769C2455.91 578.769 2455.91 578.541 2455.91 578.086C2456.82 577.631 2457.27 577.175 2457.27 576.72C2457.73 576.265 2458.18 575.809 2458.64 575.354C2459.55 573.988 2460.46 572.622 2461.37 571.256C2462.74 569.89 2463.87 568.752 2464.79 567.841C2468.88 561.922 2472.75 555.547 2476.4 548.717C2476.4 548.262 2476.4 548.034 2476.4 548.034C2476.85 547.579 2477.08 547.123 2477.08 546.668C2477.53 545.302 2477.76 543.936 2477.76 542.57C2477.76 541.204 2477.76 539.838 2477.76 538.472C2478.22 537.561 2478.45 534.829 2478.45 530.276C2478.45 527.999 2477.99 526.406 2477.08 525.495C2476.62 525.04 2475.94 523.901 2475.03 522.08C2472.75 518.893 2471.39 517.299 2470.93 517.299H2467.52C2467.06 517.299 2466.61 517.299 2466.15 517.299C2465.7 517.299 2465.24 517.299 2464.79 517.299C2463.42 517.299 2462.05 517.527 2460.69 517.982C2459.32 517.982 2457.96 518.21 2456.59 518.665L2454.54 522.08H2445.66C2442.93 522.535 2440.2 523.218 2437.47 524.129C2434.73 524.584 2432 524.584 2429.27 524.129C2426.99 524.129 2424.03 523.446 2420.39 522.08H2399.9L2406.05 510.469C2405.59 510.469 2405.36 510.469 2405.36 510.469C2405.36 510.014 2405.36 509.786 2405.36 509.786C2404.45 508.875 2403.54 508.192 2402.63 507.737C2402.18 506.826 2401.72 506.143 2401.27 505.688C2401.27 504.777 2401.04 504.094 2400.58 503.639C2400.58 502.728 2400.58 501.59 2400.58 500.224C2400.58 499.769 2400.58 499.313 2400.58 498.858C2400.58 497.947 2400.58 497.264 2400.58 496.809C2400.13 494.532 2399.67 492.711 2399.22 491.345C2399.22 489.979 2399.44 488.613 2399.9 487.247C2400.36 486.336 2401.04 485.198 2401.95 483.832C2402.86 482.011 2404.23 479.734 2406.05 477.002C2407.87 473.815 2409.23 470.627 2410.15 467.44C2411.06 464.253 2411.74 461.748 2412.19 459.927C2412.19 459.472 2411.97 459.016 2411.51 458.561C2411.51 457.65 2411.28 456.057 2410.83 453.78C2410.37 450.593 2409.69 447.861 2408.78 445.584C2407.87 442.852 2406.96 439.892 2406.05 436.705C2402.86 427.598 2399.22 419.858 2395.12 413.483C2391.02 407.108 2386.7 401.644 2382.14 397.091C2379.87 394.814 2377.36 392.993 2374.63 391.627C2371.9 389.806 2369.17 387.984 2366.43 386.163C2365.52 385.708 2364.61 385.252 2363.7 384.797C2362.79 384.342 2361.88 383.886 2360.97 383.431C2357.33 381.154 2353.68 378.878 2350.04 376.601C2346.85 374.324 2343.44 372.731 2339.8 371.82C2339.34 371.365 2338.89 371.137 2338.43 371.137C2337.97 371.137 2337.52 370.909 2337.06 370.454C2336.15 369.999 2335.02 369.771 2333.65 369.771C2333.65 369.771 2333.19 369.771 2332.28 369.771C2331.83 369.771 2330.92 369.999 2329.55 370.454C2328.64 370.909 2327.5 371.137 2326.14 371.137C2325.23 371.592 2324.31 371.82 2323.4 371.82C2322.95 371.82 2322.27 372.048 2321.36 372.503L2317.94 375.918C2317.48 376.373 2317.03 376.829 2316.57 377.284C2316.12 377.284 2315.66 377.512 2315.21 377.967C2309.29 382.976 2304.28 389.123 2300.18 396.408C2296.54 403.693 2292.9 411.206 2289.25 418.947C2286.07 424.866 2282.88 431.924 2279.69 440.12C2276.5 448.316 2273.55 456.74 2270.81 465.391L2259.89 495.443C2257.15 500.452 2254.42 507.054 2251.69 515.25C2248.96 523.446 2246.23 532.097 2243.49 541.204C2240.76 549.855 2238.03 558.507 2235.3 567.158C2232.57 575.809 2229.83 582.867 2227.1 588.331C2224.82 595.616 2222.32 602.902 2219.59 610.187C2217.31 617.017 2215.03 624.302 2212.76 632.043C2212.3 634.32 2212.08 636.596 2212.08 638.873C2212.08 641.15 2212.08 644.109 2212.08 647.752C2211.62 649.118 2211.39 649.801 2211.39 649.801C2211.39 649.801 2212.08 650.484 2213.44 651.85C2213.44 651.85 2213.9 652.305 2214.81 653.216C2215.72 654.127 2216.17 654.81 2216.17 655.265C2217.08 656.631 2217.99 657.769 2218.91 658.68C2220.27 659.591 2222.78 660.501 2226.42 661.412C2227.78 661.867 2229.15 662.323 2230.52 662.778C2231.88 663.233 2233.02 663.689 2233.93 664.144C2235.75 665.055 2236.89 665.738 2237.35 666.193C2239.17 666.648 2240.76 667.331 2242.13 668.242C2243.95 669.153 2245.77 670.063 2247.59 670.974C2248.96 672.34 2250.1 673.251 2251.01 673.706C2252.37 674.161 2253.51 674.844 2254.42 675.755C2255.79 676.666 2256.93 677.349 2257.84 677.804C2264.67 680.536 2271.95 681.902 2279.69 681.902C2287.89 681.902 2295.86 681.902 2303.6 681.902C2312.7 681.447 2321.58 680.536 2330.23 679.17C2338.89 677.349 2346.4 673.478 2352.77 667.559C2355.05 665.282 2356.87 663.006 2358.24 660.729C2360.06 657.997 2361.88 655.037 2363.7 651.85C2365.98 648.207 2368.25 644.565 2370.53 640.922C2373.26 637.279 2376.22 634.092 2379.41 631.36C2383.05 628.628 2387.15 626.579 2391.7 625.213C2396.26 623.392 2400.58 622.026 2404.68 621.115C2408.32 620.204 2411.51 619.294 2414.24 618.383C2417.43 617.472 2420.39 616.106 2423.12 614.285ZM2698.37 657.314C2698.83 655.948 2698.6 653.444 2697.69 649.801C2697.69 648.89 2697.46 648.207 2697.01 647.752C2697.01 646.841 2697.01 646.158 2697.01 645.703C2696.55 642.971 2695.87 640.239 2694.96 637.507C2694.5 634.775 2693.82 632.043 2692.91 629.311C2692 627.49 2691.54 626.124 2691.54 625.213C2689.72 620.204 2687.9 615.196 2686.08 610.187C2684.26 604.723 2682.43 599.487 2680.61 594.478C2678.79 590.38 2676.97 586.282 2675.15 582.184C2673.78 578.086 2671.96 574.216 2669.69 570.573C2669.69 570.118 2669.23 569.435 2668.32 568.524C2667.41 566.703 2666.73 565.564 2666.27 565.109C2663.54 561.466 2659.9 558.734 2655.34 556.913C2653.52 556.002 2651.24 555.547 2648.51 555.547C2646.24 555.092 2643.73 554.636 2641 554.181C2639.18 553.726 2636.9 553.498 2634.17 553.498C2631.44 553.043 2628.93 552.36 2626.66 551.449C2626.2 550.994 2625.52 550.766 2624.61 550.766C2624.15 550.311 2623.47 549.855 2622.56 549.4H2604.8L2609.58 539.838C2609.13 539.383 2608.9 538.927 2608.9 538.472C2608.9 538.017 2608.67 537.561 2608.22 537.106C2608.22 536.195 2607.99 535.74 2607.53 535.74C2602.52 526.178 2600.25 514.112 2600.7 499.541V489.979C2600.7 489.068 2600.7 488.385 2600.7 487.93C2601.16 487.019 2601.39 486.109 2601.39 485.198C2600.93 485.198 2600.02 484.97 2598.65 484.515C2596.83 483.604 2595.92 483.149 2595.92 483.149C2594.1 482.238 2593.19 481.783 2593.19 481.783C2591.82 482.694 2590.23 483.604 2588.41 484.515C2587.04 485.426 2585.22 486.564 2582.94 487.93C2581.12 488.841 2580.21 489.296 2580.21 489.296C2578.39 490.662 2576.11 492.028 2573.38 493.394C2571.11 494.305 2568.83 494.988 2566.55 495.443C2554.71 498.175 2545.83 497.947 2539.91 494.76C2539 494.76 2537.64 493.849 2535.82 492.028C2535.36 491.573 2535.13 491.117 2535.13 490.662C2535.13 490.662 2534.22 490.207 2532.4 489.296L2527.62 484.515C2526.71 483.604 2526.03 482.466 2525.57 481.1C2525.12 479.734 2524.43 478.823 2523.52 478.368C2522.61 476.547 2522.16 475.636 2522.16 475.636C2519.88 471.083 2517.6 466.757 2515.33 462.659C2513.05 458.106 2510.77 453.552 2508.5 448.999L2507.13 445.584C2506.22 443.763 2505.08 441.941 2503.72 440.12C2502.81 438.299 2501.67 436.477 2500.3 434.656C2498.02 430.103 2494.38 425.322 2489.37 420.313C2489.37 420.313 2489.15 420.085 2488.69 419.63C2488.69 419.175 2488.23 418.492 2487.32 417.581C2487.32 417.581 2487.1 417.581 2486.64 417.581C2486.19 417.126 2485.05 417.126 2483.23 417.581C2482.77 417.581 2482.32 417.809 2481.86 418.264C2481.4 418.264 2480.72 418.264 2479.81 418.264C2479.36 419.175 2479.13 420.313 2479.13 421.679C2478.22 424.866 2477.99 427.598 2478.45 429.875C2480.27 437.16 2482.32 444.446 2484.59 451.731C2486.87 459.016 2489.37 466.529 2492.11 474.27C2493.02 476.091 2493.47 477.685 2493.47 479.051C2494.84 482.694 2496.2 486.792 2497.57 491.345C2499.39 495.443 2500.07 499.541 2499.62 503.639V507.737C2499.62 509.558 2499.62 511.38 2499.62 513.201C2499.62 514.567 2499.39 515.933 2498.94 517.299C2498.48 520.942 2497.34 524.812 2495.52 528.91C2494.15 532.553 2492.56 536.195 2490.74 539.838C2489.83 541.659 2488.69 543.708 2487.32 545.985C2486.41 547.806 2485.5 549.628 2484.59 551.449C2482.32 557.824 2478.9 563.971 2474.35 569.89C2470.25 575.354 2465.7 580.818 2460.69 586.282C2458.87 588.103 2457.27 590.38 2455.91 593.112C2454.54 595.389 2453.63 597.893 2453.17 600.625C2452.72 601.08 2452.49 601.536 2452.49 601.991C2452.49 602.446 2452.26 602.902 2451.81 603.357L2451.13 606.772C2450.67 606.317 2450.9 606.772 2451.81 608.138C2452.26 608.593 2452.49 609.049 2452.49 609.504C2452.95 609.504 2453.17 609.504 2453.17 609.504C2454.08 610.415 2454.54 611.325 2454.54 612.236C2455.45 614.057 2456.36 615.423 2457.27 616.334C2457.73 616.334 2458.18 616.562 2458.64 617.017C2459.55 617.017 2460.69 617.017 2462.05 617.017C2462.51 617.472 2463.42 617.7 2464.79 617.7C2468.43 618.611 2472.07 619.294 2475.71 619.749C2479.36 619.749 2483 619.749 2486.64 619.749C2491.19 620.204 2495.75 620.66 2500.3 621.115C2505.31 621.115 2510.09 622.026 2514.64 623.847C2523.3 626.579 2531.26 632.726 2538.55 642.288C2541.28 646.386 2543.56 650.256 2545.38 653.899C2548.11 658.452 2550.84 662.778 2553.58 666.876C2556.31 670.519 2559.95 673.478 2564.5 675.755C2569.51 678.032 2574.75 679.625 2580.21 680.536C2585.68 680.991 2591.14 681.219 2596.6 681.219C2605.26 681.674 2613.91 681.902 2622.56 681.902C2631.21 681.902 2640.09 681.902 2649.2 681.902C2654.66 681.902 2659.9 681.902 2664.9 681.902C2669.91 681.447 2674.69 680.536 2679.25 679.17C2679.7 679.17 2680.16 679.17 2680.61 679.17C2681.07 678.715 2681.52 678.487 2681.98 678.487C2683.35 678.487 2685.39 677.349 2688.13 675.072C2688.58 674.617 2688.81 674.389 2688.81 674.389C2689.26 673.934 2689.72 673.478 2690.18 673.023C2690.63 673.023 2691.31 672.568 2692.22 671.657C2694.5 670.291 2695.64 669.608 2695.64 669.608C2695.64 669.608 2695.64 668.697 2695.64 666.876C2696.09 666.421 2696.32 666.193 2696.32 666.193C2696.32 665.738 2696.32 665.51 2696.32 665.51C2696.32 664.599 2696.32 663.916 2696.32 663.461C2696.78 663.006 2697.01 662.55 2697.01 662.095C2697.92 659.363 2698.37 657.769 2698.37 657.314ZM2356.19 543.936L2345.26 522.08H2372.58L2386.24 549.4H2358.92L2356.87 545.985C2356.87 545.53 2356.64 545.302 2356.19 545.302C2356.19 544.847 2356.19 544.391 2356.19 543.936ZM2317.94 576.72L2331.6 549.4H2358.92L2365.07 561.694C2365.07 559.873 2365.98 558.962 2367.8 558.962C2369.62 558.962 2370.53 559.873 2370.53 561.694C2370.53 563.515 2369.62 564.426 2367.8 564.426C2366.89 564.426 2366.21 564.198 2365.75 563.743L2372.58 576.72L2358.92 604.04H2331.6L2337.06 591.063C2335.24 591.063 2334.33 590.152 2334.33 588.331C2334.33 586.51 2335.24 585.599 2337.06 585.599C2337.52 585.599 2338.43 586.282 2339.8 587.648L2343.21 581.501C2342.76 581.956 2342.07 582.184 2341.16 582.184C2339.34 582.184 2338.43 581.273 2338.43 579.452C2338.43 577.631 2339.34 576.72 2341.16 576.72C2342.07 576.72 2342.76 576.948 2343.21 577.403C2344.12 577.403 2344.8 577.175 2345.26 576.72H2317.94ZM2360.97 552.815C2360.97 550.994 2361.88 550.083 2363.7 550.083C2365.52 550.083 2366.43 550.994 2366.43 552.815C2366.43 554.636 2365.52 555.547 2363.7 555.547C2361.88 555.547 2360.97 554.636 2360.97 552.815ZM2316.57 367.039H2312.48V327.425H2316.57V367.039ZM2326.82 365.673H2322.72V297.373H2326.82V365.673ZM2337.06 365.673H2332.97V267.321H2337.06V365.673ZM2347.31 368.405H2343.21V245.465H2347.31V368.405ZM2357.55 373.869H2353.46V233.171H2357.55V373.869ZM2367.8 380.699H2363.7V229.073H2367.8V380.699ZM2378.04 388.895H2373.95V229.073H2378.04V388.895ZM2388.29 397.091H2384.19V257.759H2388.29V397.091ZM2388.29 249.563H2384.19V240.001H2388.29V249.563ZM2398.53 406.653H2394.44V278.249H2398.53V406.653ZM2408.78 416.215H2404.68V302.837H2408.78V416.215ZM2419.02 414.849H2414.93V324.693H2419.02V414.849ZM2429.27 408.019H2425.17V336.987H2429.27V408.019ZM2439.51 390.261H2435.42V353.379H2439.51V390.261Z" fill="#D9DDE0"/>
<defs>
<filter id="filter0_d_1_88" x="1758.49" y="262.947" width="332.013" height="247.444" filterUnits="userSpaceOnUse" color-interpolation-filters="sRGB">
<feFlood flood-opacity="0" result="BackgroundImageFix"/>
<feColorMatrix in="SourceAlpha" type="matrix" values="0 0 0 0 0 0 0 0 0 0 0 0 0 0 0 0 0 0 127 0" result="hardAlpha"/>
<feOffset dy="4"/>
<feGaussianBlur stdDeviation="2"/>
<feComposite in2="hardAlpha" operator="out"/>
<feColorMatrix type="matrix" values="0 0 0 0 0 0 0 0 0 0 0 0 0 0 0 0 0 0 0.25 0"/>
<feBlend mode="normal" in2="BackgroundImageFix" result="effect1_dropShadow_1_88"/>
<feBlend mode="normal" in="SourceGraphic" in2="effect1_dropShadow_1_88" result="shape"/>
</filter>
</defs>
</svg>
